<svg width="779" height="68" viewBox="0 0 779 68" fill="none" xmlns="http://www.w3.org/2000/svg">
<path d="M695.374 12.7335H704.596V9.30824H695.374V7.91556C695.374 7.0373 695.627 6.35978 696.133 5.88301C696.639 5.38115 697.322 5.13021 698.182 5.13021C699.422 5.13021 701.395 5.20549 704.102 5.35605V1.62971C701.37 1.47915 699.295 1.40387 697.879 1.40387C695.83 1.40387 694.236 1.98101 693.097 3.1353C691.984 4.2645 691.428 5.78264 691.428 7.68972V9.30824H686.532V12.7335H691.428V28.7304H695.374V12.7335Z" fill="#011F2E"/>
<path d="M739.326 14.2389C740.237 13.3356 741.401 12.8839 742.818 12.8839C744.184 12.8839 745.879 12.9466 747.903 13.0721V9.30812C746.385 9.15756 744.804 9.08228 743.159 9.08228C741.768 9.08228 740.566 9.42104 739.554 10.0986C738.568 10.7761 737.847 11.7045 737.391 12.8839V9.30812H729.119V12.8463H734.052V25.1921H728.815V28.7303H746.916V25.1921H737.998V17.6642C737.998 16.284 738.441 15.1423 739.326 14.2389Z" fill="#011F2E"/>
<path d="M679.47 44.5014C678.635 44.5014 677.926 44.2128 677.345 43.6357C676.763 43.0335 676.472 42.3308 676.472 41.5279C676.472 40.6747 676.763 39.9721 677.345 39.42C677.926 38.8429 678.635 38.5543 679.47 38.5543C680.304 38.5543 681.013 38.8429 681.595 39.42C682.202 39.9972 682.505 40.6998 682.505 41.5279C682.505 42.3308 682.202 43.0335 681.595 43.6357C680.988 44.2128 680.279 44.5014 679.47 44.5014Z" fill="#011F2E"/>
<path d="M688.691 62.832V66.3702H670.362V62.832H677.572V50.4861H671.539V46.948H681.519V62.832H688.691Z" fill="#011F2E"/>
<path fill-rule="evenodd" clip-rule="evenodd" d="M701.94 63.0578C700.346 63.0578 699.068 62.581 698.107 61.6275C697.146 60.6489 696.576 59.3942 696.399 57.8635H710.744C710.794 57.3115 710.819 56.8347 710.819 56.4332C710.819 54.6767 710.415 53.0582 709.605 51.5777C708.821 50.0972 707.733 48.9178 706.342 48.0395C704.976 47.1613 703.432 46.7221 701.712 46.7221C699.941 46.7221 698.335 47.1613 696.893 48.0395C695.476 48.9178 694.363 50.1223 693.553 51.6529C692.744 53.1585 692.339 54.8272 692.339 56.659C692.339 58.5159 692.744 60.2097 693.553 61.7404C694.363 63.246 695.501 64.438 696.969 65.3162C698.436 66.1694 700.093 66.596 701.94 66.596C703.786 66.596 705.33 66.2196 706.569 65.4668C707.809 64.714 708.745 63.8357 709.377 62.832C710.01 61.8283 710.377 60.9374 710.478 60.1595H706.417C706.19 60.8622 705.684 61.5271 704.9 62.1545C704.141 62.7567 703.154 63.0578 701.94 63.0578ZM698.259 51.5777C699.169 50.6994 700.321 50.2603 701.712 50.2603C703.129 50.2603 704.267 50.6994 705.127 51.5777C706.013 52.4308 706.569 53.5475 706.797 54.9276H696.551C696.779 53.5475 697.348 52.4308 698.259 51.5777Z" fill="#011F2E"/>
<path d="M725.281 46.7221C727.482 46.7221 729.228 47.4247 730.518 48.83C731.834 50.2352 732.491 52.205 732.491 54.7394V66.3701H728.545V54.9276C728.545 53.6729 728.115 52.6441 727.255 51.8411C726.42 51.0131 725.383 50.599 724.143 50.599C722.878 50.599 721.815 51.0256 720.955 51.8788C720.095 52.732 719.665 53.7984 719.665 55.0782V66.3701H715.718V46.948H719.589V49.658C720.146 48.7547 720.93 48.0395 721.942 47.5126C722.979 46.9856 724.092 46.7221 725.281 46.7221Z" fill="#011F2E"/>
<path d="M749.876 51.3142C750.736 51.9164 751.306 52.6943 751.584 53.6479H755.644C755.568 52.6943 755.176 51.678 754.468 50.599C753.785 49.52 752.798 48.6041 751.508 47.8513C750.243 47.0985 748.738 46.7221 746.992 46.7221C745.221 46.7221 743.602 47.1738 742.135 48.0772C740.693 48.9554 739.542 50.1599 738.682 51.6906C737.847 53.1962 737.429 54.8523 737.429 56.659C737.429 58.4658 737.847 60.1345 738.682 61.6651C739.542 63.1707 740.693 64.3752 742.135 65.2786C743.602 66.1568 745.221 66.596 746.992 66.596C748.637 66.596 750.091 66.2196 751.356 65.4668C752.621 64.6889 753.608 63.7604 754.316 62.6814C755.05 61.6024 755.467 60.5987 755.568 59.6702H751.546C751.293 60.5736 750.736 61.3389 749.876 61.9663C749.042 62.5936 748.08 62.9073 746.992 62.9073C745.904 62.9073 744.93 62.6187 744.07 62.0415C743.235 61.4644 742.578 60.6991 742.097 59.7455C741.616 58.792 741.376 57.7632 741.376 56.659C741.376 55.5549 741.604 54.5261 742.059 53.5726C742.54 52.619 743.21 51.8537 744.07 51.2765C744.93 50.6994 745.904 50.4108 746.992 50.4108C748.055 50.4108 749.016 50.7119 749.876 51.3142Z" fill="#011F2E"/>
<path fill-rule="evenodd" clip-rule="evenodd" d="M769.12 63.0578C767.526 63.0578 766.249 62.581 765.287 61.6275C764.326 60.6489 763.757 59.3942 763.58 57.8635H777.924C777.975 57.3115 778 56.8347 778 56.4332C778 54.6767 777.595 53.0582 776.786 51.5777C776.001 50.0972 774.914 48.9178 773.522 48.0395C772.156 47.1613 770.613 46.7221 768.893 46.7221C767.122 46.7221 765.515 47.1613 764.073 48.0395C762.656 48.9178 761.543 50.1223 760.734 51.6529C759.924 53.1585 759.519 54.8272 759.519 56.659C759.519 58.5159 759.924 60.2097 760.734 61.7404C761.543 63.246 762.682 64.438 764.149 65.3162C765.616 66.1694 767.273 66.596 769.12 66.596C770.967 66.596 772.51 66.2196 773.75 65.4668C774.989 64.714 775.926 63.8357 776.558 62.832C777.19 61.8283 777.557 60.9374 777.658 60.1595H773.598C773.37 60.8622 772.864 61.5271 772.08 62.1545C771.321 62.7567 770.334 63.0578 769.12 63.0578ZM765.439 51.5777C766.35 50.6994 767.501 50.2603 768.893 50.2603C770.309 50.2603 771.448 50.6994 772.308 51.5777C773.193 52.4308 773.75 53.5475 773.978 54.9276H763.732C763.959 53.5475 764.529 52.4308 765.439 51.5777Z" fill="#011F2E"/>
<path d="M660.302 51.3142C661.162 51.9164 661.731 52.6943 662.01 53.6479H666.07C665.994 52.6943 665.602 51.678 664.894 50.599C664.211 49.52 663.224 48.6041 661.934 47.8513C660.669 47.0985 659.163 46.7221 657.418 46.7221C655.647 46.7221 654.028 47.1738 652.561 48.0772C651.119 48.9554 649.968 50.1599 649.107 51.6906C648.272 53.1962 647.855 54.8523 647.855 56.659C647.855 58.4658 648.272 60.1345 649.107 61.6651C649.968 63.1707 651.119 64.3752 652.561 65.2786C654.028 66.1568 655.647 66.596 657.418 66.596C659.062 66.596 660.517 66.2196 661.782 65.4668C663.047 64.6889 664.033 63.7604 664.742 62.6814C665.475 61.6024 665.893 60.5987 665.994 59.6702H661.972C661.719 60.5736 661.162 61.3389 660.302 61.9663C659.467 62.5936 658.506 62.9073 657.418 62.9073C656.33 62.9073 655.356 62.6187 654.496 62.0415C653.661 61.4644 653.003 60.6991 652.523 59.7455C652.042 58.792 651.802 57.7632 651.802 56.659C651.802 55.5549 652.029 54.5261 652.485 53.5726C652.965 52.619 653.636 51.8537 654.496 51.2765C655.356 50.6994 656.33 50.4108 657.418 50.4108C658.48 50.4108 659.442 50.7119 660.302 51.3142Z" fill="#011F2E"/>
<path d="M629.218 57.299C629.268 58.9803 629.787 60.3228 630.774 61.3265C631.76 62.3051 633.088 62.7945 634.758 62.7945C636.276 62.7945 637.452 62.4055 638.287 61.6276C639.147 60.8246 639.577 59.8711 639.577 58.767C639.577 57.7884 639.236 56.9603 638.553 56.2828C637.895 55.5802 636.984 55.0783 635.821 54.7772L632.595 53.9114C630.419 53.3092 628.762 52.3682 627.624 51.0885C626.511 49.8087 625.954 48.3031 625.954 46.5717C625.954 45.1916 626.321 43.9243 627.055 42.7701C627.788 41.6158 628.813 40.7124 630.128 40.06C631.444 39.3825 632.924 39.0437 634.568 39.0437C636.263 39.0437 637.743 39.4452 639.008 40.2482C640.298 41.0261 641.272 42.0549 641.93 43.3347C642.613 44.6144 642.955 45.9569 642.955 47.3621H639.008C638.983 46.0573 638.54 44.9783 637.68 44.1251C636.845 43.2719 635.77 42.8453 634.455 42.8453C633.088 42.8453 632.001 43.2217 631.191 43.9745C630.381 44.7022 629.977 45.5554 629.977 46.534C629.977 48.3157 631.102 49.5201 633.354 50.1475L636.504 51.0132C641.26 52.2428 643.638 54.8148 643.638 58.7294C643.638 60.1848 643.271 61.5147 642.537 62.7192C641.804 63.9237 640.766 64.8772 639.426 65.5798C638.085 66.2573 636.529 66.5961 634.758 66.5961C633.012 66.5961 631.419 66.2197 629.977 65.4669C628.535 64.689 627.384 63.5974 626.523 62.1922C625.663 60.787 625.208 59.1559 625.157 57.299H629.218Z" fill="#011F2E"/>
<path fill-rule="evenodd" clip-rule="evenodd" d="M716.743 28.9561C714.972 28.9561 713.353 28.517 711.886 27.6387C710.444 26.7354 709.305 25.5309 708.471 24.0253C707.636 22.4946 707.218 20.8259 707.218 19.0192C707.218 17.2125 707.636 15.5563 708.471 14.0507C709.305 12.5201 710.444 11.3156 711.886 10.4373C713.353 9.53396 714.972 9.08228 716.743 9.08228H716.781C718.527 9.08228 720.121 9.53396 721.563 10.4373C723.03 11.3156 724.181 12.5201 725.016 14.0507C725.851 15.5563 726.268 17.2125 726.268 19.0192C726.268 20.8259 725.851 22.4946 725.016 24.0253C724.181 25.5309 723.03 26.7354 721.563 27.6387C720.121 28.517 718.527 28.9561 716.781 28.9561H716.743ZM716.781 25.1169C717.818 25.1169 718.754 24.8408 719.589 24.2888C720.449 23.7367 721.12 22.9965 721.601 22.068C722.081 21.1396 722.322 20.1233 722.322 19.0192C722.322 17.9402 722.081 16.9365 721.601 16.008C721.12 15.0796 720.449 14.3393 719.589 13.7873C718.754 13.2101 717.818 12.9215 716.781 12.9215H716.743C715.681 12.9215 714.719 13.1976 713.859 13.7496C713.024 14.3017 712.367 15.0419 711.886 15.9704C711.405 16.8988 711.165 17.9151 711.165 19.0192C711.165 20.1233 711.405 21.1396 711.886 22.068C712.367 22.9965 713.024 23.7367 713.859 24.2888C714.719 24.8408 715.681 25.1169 716.743 25.1169H716.781Z" fill="#011F2E"/>
<path d="M658.746 5.16781V25.1922H664.817V28.7304H648.727V25.1922H654.799V5.16781H648.727V1.62967H664.817V5.16781H658.746Z" fill="#011F2E"/>
<path fill-rule="evenodd" clip-rule="evenodd" d="M629.787 21.4659H638.97L641.285 28.7304H645.27L636.731 1.62967H632.026L623.488 28.7304H627.472L629.787 21.4659ZM636.238 12.9593L637.794 17.8148H630.925L632.481 12.9593C632.734 12.1061 633.227 10.3621 633.961 7.72732L634.379 6.18409H634.417C634.771 7.51403 634.986 8.35465 635.062 8.70596C635.466 10.2868 635.858 11.7046 636.238 12.9593Z" fill="#011F2E"/>
<path d="M184.036 34.1194C184.036 30.448 187.012 27.4717 190.684 27.4717C194.355 27.4717 197.331 30.448 197.331 34.1194C197.331 37.7908 194.355 40.7671 190.684 40.7671C187.012 40.7671 184.036 37.7908 184.036 34.1194Z" fill="#011F2E"/>
<path d="M185.114 34.1194C185.114 37.7908 182.138 40.7671 178.466 40.7671C174.795 40.7671 171.818 37.7908 171.818 34.1194C171.818 30.448 174.795 27.4717 178.466 27.4717C182.138 27.4717 185.114 30.448 185.114 34.1194Z" fill="#011F2E"/>
<path d="M172.899 34.1194C172.899 37.7908 169.922 40.7671 166.251 40.7671C162.58 40.7671 159.603 37.7908 159.603 34.1194C159.603 30.448 162.58 27.4717 166.251 27.4717C169.922 27.4717 172.899 30.448 172.899 34.1194Z" fill="#011F2E"/>
<path d="M160.681 34.1194C160.681 37.7908 157.705 40.7671 154.034 40.7671C150.362 40.7671 147.386 37.7908 147.386 34.1194C147.386 30.448 150.362 27.4717 154.034 27.4717C157.705 27.4717 160.681 30.448 160.681 34.1194Z" fill="#011F2E"/>
<path d="M141.818 27.4717C145.49 27.4717 148.466 30.448 148.466 34.1194C148.466 37.7908 145.49 40.7671 141.818 40.7671C138.147 40.7671 135.171 37.7908 135.171 34.1194C135.171 30.448 138.147 27.4717 141.818 27.4717Z" fill="#011F2E"/>
<path d="M141.818 14.1761C145.49 14.1761 148.466 17.1524 148.466 20.8239C148.466 24.4953 145.49 27.4717 141.818 27.4717C138.147 27.4717 135.171 24.4953 135.171 20.8239C135.171 17.1524 138.147 14.1761 141.818 14.1761Z" fill="#011F2E"/>
<path d="M135.171 47.4149C135.171 43.7435 138.147 40.7671 141.818 40.7671C145.49 40.7671 148.466 43.7435 148.466 47.4149C148.466 51.0864 145.49 54.0626 141.818 54.0626C138.147 54.0626 135.171 51.0864 135.171 47.4149Z" fill="#011F2E"/>
<path d="M160.681 60.7099C160.681 57.0385 157.705 54.0622 154.034 54.0622C150.362 54.0622 147.386 57.0385 147.386 60.7099C147.386 64.3814 150.362 67.3577 154.034 67.3577C157.705 67.3577 160.681 64.3814 160.681 60.7099Z" fill="#011F2E"/>
<path d="M172.899 60.7099C172.899 64.3814 169.922 67.3577 166.251 67.3577C162.58 67.3577 159.603 64.3814 159.603 60.7099C159.603 57.0385 162.58 54.0622 166.251 54.0622C169.922 54.0622 172.899 57.0385 172.899 60.7099Z" fill="#011F2E"/>
<path d="M185.114 60.7099C185.114 57.0385 182.138 54.0622 178.466 54.0622C174.795 54.0622 171.818 57.0385 171.818 60.7099C171.818 64.3814 174.795 67.3577 178.466 67.3577C182.138 67.3577 185.114 64.3814 185.114 60.7099Z" fill="#011F2E"/>
<path d="M184.036 60.7099C184.036 64.3814 187.012 67.3577 190.684 67.3577C194.355 67.3577 197.331 64.3814 197.331 60.7099C197.331 57.0385 194.355 54.0622 190.684 54.0622C187.012 54.0622 184.036 57.0385 184.036 60.7099Z" fill="#011F2E"/>
<path d="M160.681 7.52834C160.681 3.8569 157.705 0.880615 154.034 0.880615C150.362 0.880615 147.386 3.8569 147.386 7.52834C147.386 11.1998 150.362 14.1761 154.034 14.1761C157.705 14.1761 160.681 11.1998 160.681 7.52834Z" fill="#011F2E"/>
<path d="M172.899 7.52834C172.899 11.1998 169.922 14.1761 166.251 14.1761C162.58 14.1761 159.603 11.1998 159.603 7.52834C159.603 3.8569 162.58 0.880615 166.251 0.880615C169.922 0.880615 172.899 3.8569 172.899 7.52834Z" fill="#011F2E"/>
<path d="M185.114 7.52834C185.114 3.8569 182.138 0.880615 178.466 0.880615C174.795 0.880615 171.818 3.8569 171.818 7.52834C171.818 11.1998 174.795 14.1761 178.466 14.1761C182.138 14.1761 185.114 11.1998 185.114 7.52834Z" fill="#011F2E"/>
<path d="M184.036 7.52834C184.036 11.1998 187.012 14.1761 190.684 14.1761C194.355 14.1761 197.331 11.1998 197.331 7.52834C197.331 3.8569 194.355 0.880615 190.684 0.880615C187.012 0.880615 184.036 3.8569 184.036 7.52834Z" fill="#011F2E"/>
<path d="M225.196 13.899C228.944 13.899 231.983 16.9373 231.983 20.6852C231.983 24.4331 228.944 27.4714 225.196 27.4714C221.449 27.4714 218.41 24.4331 218.41 20.6852C218.41 16.9373 221.449 13.899 225.196 13.899Z" fill="#011F2E"/>
<path d="M219.489 7.52834C219.489 3.8569 216.513 0.880615 212.842 0.880615C209.17 0.880615 206.194 3.8569 206.194 7.52834C206.194 11.1998 209.17 14.1761 212.842 14.1761C216.513 14.1761 219.489 11.1998 219.489 7.52834Z" fill="#011F2E"/>
<path d="M212.842 14.1761C209.17 14.1761 206.194 17.1524 206.194 20.8239C206.194 24.4953 209.17 27.4716 212.842 27.4716C216.513 27.4716 219.489 24.4953 219.489 20.8239C219.489 17.1524 216.513 14.1761 212.842 14.1761Z" fill="#011F2E"/>
<path d="M212.842 27.4716C209.17 27.4716 206.194 30.448 206.194 34.1194C206.194 37.7908 209.17 40.7671 212.842 40.7671C216.513 40.7671 219.489 37.7908 219.489 34.1194C219.489 30.448 216.513 27.4716 212.842 27.4716Z" fill="#011F2E"/>
<path d="M212.842 40.7671C209.17 40.7671 206.194 43.7435 206.194 47.4149C206.194 51.0864 209.17 54.0626 212.842 54.0626C216.513 54.0626 219.489 51.0864 219.489 47.4149C219.489 43.7435 216.513 40.7671 212.842 40.7671Z" fill="#011F2E"/>
<path d="M212.842 54.0626C209.17 54.0626 206.194 57.0385 206.194 60.7099C206.194 64.3814 209.17 67.3577 212.842 67.3577C216.513 67.3577 219.489 64.3814 219.489 60.7099C219.489 57.0385 216.513 54.0626 212.842 54.0626Z" fill="#011F2E"/>
<path d="M243.339 33.1497C243.339 29.4017 240.301 26.3635 236.553 26.3635C232.805 26.3635 229.767 29.4017 229.767 33.1497C229.767 36.8976 232.805 39.9359 236.553 39.9359C240.301 39.9359 243.339 36.8976 243.339 33.1497Z" fill="#011F2E"/>
<path d="M247.91 39.1051C251.658 39.1051 254.696 42.1434 254.696 45.8914C254.696 49.6393 251.658 52.6776 247.91 52.6776C244.162 52.6776 241.124 49.6393 241.124 45.8914C241.124 42.1434 244.162 39.1051 247.91 39.1051Z" fill="#011F2E"/>
<path d="M260.265 40.7672C256.594 40.7672 253.617 43.7435 253.617 47.4149C253.617 51.0864 256.594 54.0626 260.265 54.0626C263.936 54.0626 266.913 51.0864 266.913 47.4149C266.913 43.7435 263.936 40.7672 260.265 40.7672Z" fill="#011F2E"/>
<path d="M260.265 54.0626C256.594 54.0626 253.617 57.0385 253.617 60.7099C253.617 64.3814 256.594 67.3577 260.265 67.3577C263.936 67.3577 266.913 64.3814 266.913 60.7099C266.913 57.0385 263.936 54.0626 260.265 54.0626Z" fill="#011F2E"/>
<path d="M260.265 27.4717C256.594 27.4717 253.617 30.448 253.617 34.1194C253.617 37.7908 256.594 40.7672 260.265 40.7672C263.936 40.7672 266.913 37.7908 266.913 34.1194C266.913 30.448 263.936 27.4717 260.265 27.4717Z" fill="#011F2E"/>
<path d="M260.265 14.1761C256.594 14.1761 253.617 17.1524 253.617 20.8239C253.617 24.4953 256.594 27.4717 260.265 27.4717C263.936 27.4717 266.913 24.4953 266.913 20.8239C266.913 17.1524 263.936 14.1761 260.265 14.1761Z" fill="#011F2E"/>
<path d="M266.913 7.52834C266.913 3.8569 263.936 0.880615 260.265 0.880615C256.594 0.880615 253.617 3.8569 253.617 7.52834C253.617 11.1998 256.594 14.1761 260.265 14.1761C263.936 14.1761 266.913 11.1998 266.913 7.52834Z" fill="#011F2E"/>
<path d="M296.258 54.0622C299.93 54.0622 302.906 57.0385 302.906 60.7099C302.906 64.3814 299.93 67.3577 296.258 67.3577C292.587 67.3577 289.611 64.3814 289.611 60.7099C289.611 57.0385 292.587 54.0622 296.258 54.0622Z" fill="#011F2E"/>
<path d="M315.122 60.7099C315.122 64.3814 312.146 67.3577 308.475 67.3577C304.803 67.3577 301.827 64.3814 301.827 60.7099C301.827 57.0385 304.803 54.0622 308.475 54.0622C312.146 54.0622 315.122 57.0385 315.122 60.7099Z" fill="#011F2E"/>
<path d="M327.338 60.7099C327.338 64.3814 324.361 67.3577 320.69 67.3577C317.018 67.3577 314.042 64.3814 314.042 60.7099C314.042 57.0385 317.018 54.0622 320.69 54.0622C324.361 54.0622 327.338 57.0385 327.338 60.7099Z" fill="#011F2E"/>
<path d="M326.26 60.7099C326.26 64.3814 329.236 67.3577 332.907 67.3577C336.579 67.3577 339.555 64.3814 339.555 60.7099C339.555 57.0385 336.579 54.0622 332.907 54.0622C329.236 54.0622 326.26 57.0385 326.26 60.7099Z" fill="#011F2E"/>
<path d="M302.906 7.52834C302.906 3.8569 299.93 0.880615 296.258 0.880615C292.587 0.880615 289.611 3.8569 289.611 7.52834C289.611 11.1998 292.587 14.1761 296.258 14.1761C299.93 14.1761 302.906 11.1998 302.906 7.52834Z" fill="#011F2E"/>
<path d="M315.122 7.52834C315.122 3.8569 312.146 0.880615 308.475 0.880615C304.803 0.880615 301.827 3.8569 301.827 7.52834C301.827 11.1998 304.803 14.1761 308.475 14.1761C312.146 14.1761 315.122 11.1998 315.122 7.52834Z" fill="#011F2E"/>
<path d="M327.338 7.52834C327.338 3.8569 324.361 0.880615 320.69 0.880615C317.018 0.880615 314.042 3.8569 314.042 7.52834C314.042 11.1998 317.018 14.1761 320.69 14.1761C324.361 14.1761 327.338 11.1998 327.338 7.52834Z" fill="#011F2E"/>
<path d="M326.26 7.52834C326.26 3.8569 329.236 0.880615 332.907 0.880615C336.579 0.880615 339.555 3.8569 339.555 7.52834C339.555 11.1998 336.579 14.1761 332.907 14.1761C329.236 14.1761 326.26 11.1998 326.26 7.52834Z" fill="#011F2E"/>
<path d="M434.781 7.52834C434.781 3.8569 431.805 0.880615 428.133 0.880615C424.462 0.880615 421.486 3.8569 421.486 7.52834C421.486 11.1998 424.462 14.1761 428.133 14.1761C431.805 14.1761 434.781 11.1998 434.781 7.52834Z" fill="#011F2E"/>
<path d="M428.133 14.1761C424.462 14.1761 421.486 17.1524 421.486 20.8239C421.486 24.4953 424.462 27.4716 428.133 27.4716C431.805 27.4716 434.781 24.4953 434.781 20.8239C434.781 17.1524 431.805 14.1761 428.133 14.1761Z" fill="#011F2E"/>
<path d="M428.133 27.4716C424.462 27.4716 421.486 30.448 421.486 34.1194C421.486 37.7908 424.462 40.7671 428.133 40.7671C431.805 40.7671 434.781 37.7908 434.781 34.1194C434.781 30.448 431.805 27.4716 428.133 27.4716Z" fill="#011F2E"/>
<path d="M428.133 40.7671C424.462 40.7671 421.486 43.7435 421.486 47.4149C421.486 51.0864 424.462 54.0626 428.133 54.0626C431.805 54.0626 434.781 51.0864 434.781 47.4149C434.781 43.7435 431.805 40.7671 428.133 40.7671Z" fill="#011F2E"/>
<path d="M428.133 54.0626C424.462 54.0626 421.486 57.0385 421.486 60.7099C421.486 64.3814 424.462 67.3577 428.133 67.3577C431.805 67.3577 434.781 64.3814 434.781 60.7099C434.781 57.0385 431.805 54.0626 428.133 54.0626Z" fill="#011F2E"/>
<path d="M433.702 60.7099C433.702 64.3814 436.678 67.3577 440.35 67.3577C444.021 67.3577 446.997 64.3814 446.997 60.7099C446.997 57.0385 444.021 54.0622 440.35 54.0622C436.678 54.0622 433.702 57.0385 433.702 60.7099Z" fill="#011F2E"/>
<path d="M445.918 60.7099C445.918 64.3814 448.895 67.3577 452.566 67.3577C456.237 67.3577 459.214 64.3814 459.214 60.7099C459.214 57.0385 456.237 54.0622 452.566 54.0622C448.895 54.0622 445.918 57.0385 445.918 60.7099Z" fill="#011F2E"/>
<path d="M458.135 60.7099C458.135 64.3814 461.111 67.3577 464.782 67.3577C468.454 67.3577 471.43 64.3814 471.43 60.7099C471.43 57.0385 468.454 54.0622 464.782 54.0622C461.111 54.0622 458.135 57.0385 458.135 60.7099Z" fill="#011F2E"/>
<path d="M446.997 7.52834C446.997 11.1998 444.021 14.1761 440.35 14.1761C436.678 14.1761 433.702 11.1998 433.702 7.52834C433.702 3.8569 436.678 0.880615 440.35 0.880615C444.021 0.880615 446.997 3.8569 446.997 7.52834Z" fill="#011F2E"/>
<path d="M459.214 7.52834C459.214 11.1998 456.237 14.1761 452.566 14.1761C448.895 14.1761 445.918 11.1998 445.918 7.52834C445.918 3.8569 448.895 0.880615 452.566 0.880615C456.237 0.880615 459.214 3.8569 459.214 7.52834Z" fill="#011F2E"/>
<path d="M458.135 7.52834C458.135 11.1998 461.111 14.1761 464.782 14.1761C468.454 14.1761 471.43 11.1998 471.43 7.52834C471.43 3.8569 468.454 0.880615 464.782 0.880615C461.111 0.880615 458.135 3.8569 458.135 7.52834Z" fill="#011F2E"/>
<path d="M494.64 34.1194C494.64 30.448 497.616 27.4717 501.288 27.4717C504.959 27.4717 507.936 30.448 507.936 34.1194C507.936 37.7908 504.959 40.7671 501.288 40.7671C497.616 40.7671 494.64 37.7908 494.64 34.1194Z" fill="#011F2E"/>
<path d="M494.64 47.4149C494.64 43.7435 497.616 40.7671 501.288 40.7671C504.959 40.7671 507.936 43.7435 507.936 47.4149C507.936 51.0864 504.959 54.0626 501.288 54.0626C497.616 54.0626 494.64 51.0864 494.64 47.4149Z" fill="#011F2E"/>
<path d="M507.936 20.8239C507.936 17.1524 504.959 14.1761 501.288 14.1761C497.616 14.1761 494.64 17.1524 494.64 20.8239C494.64 24.4953 497.616 27.4717 501.288 27.4717C504.959 27.4717 507.936 24.4953 507.936 20.8239Z" fill="#011F2E"/>
<path d="M506.856 34.1194C506.856 37.7908 509.833 40.7671 513.504 40.7671C517.176 40.7671 520.152 37.7908 520.152 34.1194C520.152 30.448 517.176 27.4717 513.504 27.4717C509.833 27.4717 506.856 30.448 506.856 34.1194Z" fill="#011F2E"/>
<path d="M519.073 34.1194C519.073 37.7908 522.049 40.7671 525.72 40.7671C529.392 40.7671 532.368 37.7908 532.368 34.1194C532.368 30.448 529.392 27.4717 525.72 27.4717C522.049 27.4717 519.073 30.448 519.073 34.1194Z" fill="#011F2E"/>
<path d="M531.288 34.1194C531.288 37.7908 534.264 40.7671 537.936 40.7671C541.607 40.7671 544.583 37.7908 544.583 34.1194C544.583 30.448 541.607 27.4717 537.936 27.4717C534.264 27.4717 531.288 30.448 531.288 34.1194Z" fill="#011F2E"/>
<path d="M543.504 34.1194C543.504 37.7908 546.48 40.7671 550.152 40.7671C553.823 40.7671 556.8 37.7908 556.8 34.1194C556.8 30.448 553.823 27.4717 550.152 27.4717C546.48 27.4717 543.504 30.448 543.504 34.1194Z" fill="#011F2E"/>
<path d="M513.504 54.0622C517.176 54.0622 520.152 57.0385 520.152 60.7099C520.152 64.3814 517.176 67.3577 513.504 67.3577C509.833 67.3577 506.856 64.3814 506.856 60.7099C506.856 57.0385 509.833 54.0622 513.504 54.0622Z" fill="#011F2E"/>
<path d="M532.368 60.7099C532.368 57.0385 529.392 54.0622 525.72 54.0622C522.049 54.0622 519.073 57.0385 519.073 60.7099C519.073 64.3814 522.049 67.3577 525.72 67.3577C529.392 67.3577 532.368 64.3814 532.368 60.7099Z" fill="#011F2E"/>
<path d="M544.583 60.7099C544.583 64.3814 541.607 67.3577 537.936 67.3577C534.264 67.3577 531.288 64.3814 531.288 60.7099C531.288 57.0385 534.264 54.0622 537.936 54.0622C541.607 54.0622 544.583 57.0385 544.583 60.7099Z" fill="#011F2E"/>
<path d="M543.504 60.7099C543.504 57.0385 546.48 54.0622 550.152 54.0622C553.823 54.0622 556.8 57.0385 556.8 60.7099C556.8 64.3814 553.823 67.3577 550.152 67.3577C546.48 67.3577 543.504 64.3814 543.504 60.7099Z" fill="#011F2E"/>
<path d="M513.504 0.880615C517.176 0.880615 520.152 3.8569 520.152 7.52834C520.152 11.1998 517.176 14.1761 513.504 14.1761C509.833 14.1761 506.856 11.1998 506.856 7.52834C506.856 3.8569 509.833 0.880615 513.504 0.880615Z" fill="#011F2E"/>
<path d="M532.368 7.52834C532.368 3.8569 529.392 0.880615 525.72 0.880615C522.049 0.880615 519.073 3.8569 519.073 7.52834C519.073 11.1998 522.049 14.1761 525.72 14.1761C529.392 14.1761 532.368 11.1998 532.368 7.52834Z" fill="#011F2E"/>
<path d="M544.583 7.52834C544.583 11.1998 541.607 14.1761 537.936 14.1761C534.264 14.1761 531.288 11.1998 531.288 7.52834C531.288 3.8569 534.264 0.880615 537.936 0.880615C541.607 0.880615 544.583 3.8569 544.583 7.52834Z" fill="#011F2E"/>
<path d="M543.504 7.52834C543.504 3.8569 546.48 0.880615 550.152 0.880615C553.823 0.880615 556.8 3.8569 556.8 7.52834C556.8 11.1998 553.823 14.1761 550.152 14.1761C546.48 14.1761 543.504 11.1998 543.504 7.52834Z" fill="#011F2E"/>
<path d="M355.784 12.5562C359.455 12.5562 362.432 15.5327 362.432 19.2044C362.432 22.876 359.455 25.8525 355.784 25.8525C352.112 25.8525 349.136 22.876 349.136 19.2044C349.136 15.5327 352.112 12.5562 355.784 12.5562Z" fill="#011F2E"/>
<path d="M353.084 27.4714C356.755 27.4714 359.732 30.4477 359.732 34.1191C359.732 37.7906 356.755 40.7669 353.084 40.7669C349.413 40.7669 346.436 37.7906 346.436 34.1191C346.436 30.4477 349.413 27.4714 353.084 27.4714Z" fill="#011F2E"/>
<path d="M349.136 49.0338C349.136 45.3621 352.112 42.3856 355.784 42.3856C359.455 42.3856 362.432 45.3621 362.432 49.0338C362.432 52.7054 359.455 55.6819 355.784 55.6819C352.112 55.6819 349.136 52.7054 349.136 49.0338Z" fill="#011F2E"/>
<path d="M374.648 60.7099C374.648 57.0385 371.672 54.0622 368.001 54.0622C364.329 54.0622 361.353 57.0385 361.353 60.7099C361.353 64.3814 364.329 67.3577 368.001 67.3577C371.672 67.3577 374.648 64.3814 374.648 60.7099Z" fill="#011F2E"/>
<path d="M385.786 60.7099C385.786 57.0385 388.763 54.0622 392.434 54.0622C396.106 54.0622 399.082 57.0385 399.082 60.7099C399.082 64.3814 396.106 67.3577 392.434 67.3577C388.763 67.3577 385.786 64.3814 385.786 60.7099Z" fill="#011F2E"/>
<path d="M386.865 60.7099C386.865 57.0385 383.888 54.0622 380.217 54.0622C376.545 54.0622 373.569 57.0385 373.569 60.7099C373.569 64.3814 376.545 67.3577 380.217 67.3577C383.888 67.3577 386.865 64.3814 386.865 60.7099Z" fill="#011F2E"/>
<path d="M368.001 0.880615C371.672 0.880615 374.648 3.8569 374.648 7.52834C374.648 11.1998 371.672 14.1761 368.001 14.1761C364.329 14.1761 361.353 11.1998 361.353 7.52834C361.353 3.8569 364.329 0.880615 368.001 0.880615Z" fill="#011F2E"/>
<path d="M386.865 7.52834C386.865 11.1998 383.888 14.1761 380.217 14.1761C376.545 14.1761 373.569 11.1998 373.569 7.52834C373.569 3.8569 376.545 0.880615 380.217 0.880615C383.888 0.880615 386.865 3.8569 386.865 7.52834Z" fill="#011F2E"/>
<path d="M385.786 7.52834C385.786 11.1998 388.763 14.1761 392.434 14.1761C396.106 14.1761 399.082 11.1998 399.082 7.52834C399.082 3.8569 396.106 0.880615 392.434 0.880615C388.763 0.880615 385.786 3.8569 385.786 7.52834Z" fill="#011F2E"/>
<path d="M404.65 12.5562C400.978 12.5562 398.002 15.5327 398.002 19.2044C398.002 22.876 400.978 25.8525 404.65 25.8525C408.322 25.8525 411.298 22.876 411.298 19.2044C411.298 15.5327 408.322 12.5562 404.65 12.5562Z" fill="#011F2E"/>
<path d="M407.35 27.4714C403.678 27.4714 400.702 30.4477 400.702 34.1191C400.702 37.7906 403.678 40.7669 407.35 40.7669C411.021 40.7669 413.997 37.7906 413.997 34.1191C413.997 30.4477 411.021 27.4714 407.35 27.4714Z" fill="#011F2E"/>
<path d="M411.298 49.0338C411.298 45.3621 408.322 42.3856 404.65 42.3856C400.978 42.3856 398.002 45.3621 398.002 49.0338C398.002 52.7054 400.978 55.6819 404.65 55.6819C408.322 55.6819 411.298 52.7054 411.298 49.0338Z" fill="#011F2E"/>
<path d="M284.014 12.5562C287.686 12.5562 290.662 15.5327 290.662 19.2044C290.662 22.876 287.686 25.8525 284.014 25.8525C280.342 25.8525 277.366 22.876 277.366 19.2044C277.366 15.5327 280.342 12.5562 284.014 12.5562Z" fill="#011F2E"/>
<path d="M281.314 27.4714C284.986 27.4714 287.962 30.4477 287.962 34.1191C287.962 37.7906 284.986 40.7669 281.314 40.7669C277.643 40.7669 274.667 37.7906 274.667 34.1191C274.667 30.4477 277.643 27.4714 281.314 27.4714Z" fill="#011F2E"/>
<path d="M277.366 49.0338C277.366 45.3621 280.342 42.3856 284.014 42.3856C287.686 42.3856 290.662 45.3621 290.662 49.0338C290.662 52.7054 287.686 55.6819 284.014 55.6819C280.342 55.6819 277.366 52.7054 277.366 49.0338Z" fill="#011F2E"/>
<path d="M477.737 12.5562C474.065 12.5562 471.089 15.5327 471.089 19.2044C471.089 22.876 474.065 25.8525 477.737 25.8525C481.409 25.8525 484.385 22.876 484.385 19.2044C484.385 15.5327 481.409 12.5562 477.737 12.5562Z" fill="#011F2E"/>
<path d="M480.437 27.4714C476.765 27.4714 473.789 30.4477 473.789 34.1191C473.789 37.7906 476.765 40.7669 480.437 40.7669C484.108 40.7669 487.084 37.7906 487.084 34.1191C487.084 30.4477 484.108 27.4714 480.437 27.4714Z" fill="#011F2E"/>
<path d="M484.385 49.0338C484.385 45.3621 481.409 42.3856 477.737 42.3856C474.065 42.3856 471.089 45.3621 471.089 49.0338C471.089 52.7054 474.065 55.6819 477.737 55.6819C481.409 55.6819 484.385 52.7054 484.385 49.0338Z" fill="#011F2E"/>
<path d="M33.2388 54.0626C29.5674 54.0626 26.5911 51.0864 26.5911 47.4149C26.5911 43.7435 29.5674 40.7672 33.2388 40.7672C36.9102 40.7672 39.8865 43.7435 39.8865 47.4149C39.8865 51.0864 36.9102 54.0626 33.2388 54.0626Z" fill="#FF4D1C"/>
<path d="M13.2955 47.4149C13.2955 43.7435 16.2718 40.7672 19.9433 40.7672C23.6147 40.7672 26.5911 43.7435 26.5911 47.4149C26.5911 51.0864 23.6147 54.0626 19.9433 54.0626C16.2718 54.0626 13.2955 51.0864 13.2955 47.4149Z" fill="#FF4D1C"/>
<path d="M19.9433 27.4717C23.6147 27.4717 26.591 30.448 26.591 34.1194C26.591 37.7908 23.6147 40.7672 19.9433 40.7672C16.2718 40.7672 13.2955 37.7908 13.2955 34.1194C13.2955 30.448 16.2718 27.4717 19.9433 27.4717Z" fill="#FF4D1C"/>
<path d="M46.5343 40.7671C42.8629 40.7671 39.8866 37.7908 39.8866 34.1194C39.8866 30.448 42.8629 27.4717 46.5343 27.4717C50.2058 27.4717 53.182 30.448 53.182 34.1194C53.182 37.7908 50.2058 40.7671 46.5343 40.7671Z" fill="#FF4D1C"/>
<path d="M6.64773 27.4717C10.3192 27.4717 13.2955 30.448 13.2955 34.1194C13.2955 37.7908 10.3192 40.7671 6.64773 40.7671C2.97629 40.7671 0 37.7908 0 34.1194C0 30.448 2.97629 27.4717 6.64773 27.4717Z" fill="#FF4D1C"/>
<path d="M26.5911 60.7105C26.5911 57.039 29.5674 54.0626 33.2388 54.0626C36.9102 54.0626 39.8865 57.039 39.8865 60.7105C39.8865 64.3819 36.9102 67.3582 33.2388 67.3582C29.5674 67.3582 26.5911 64.3819 26.5911 60.7105Z" fill="#FF4D1C"/>
<path d="M33.2388 14.1761C36.9102 14.1761 39.8865 17.1524 39.8865 20.8239C39.8865 24.4953 36.9102 27.4716 33.2388 27.4716C29.5674 27.4716 26.5911 24.4953 26.5911 20.8239C26.5911 17.1524 29.5674 14.1761 33.2388 14.1761Z" fill="#FF4D1C"/>
<path d="M53.181 20.8239C53.181 24.4953 50.2047 27.4716 46.5333 27.4716C42.8618 27.4716 39.8865 24.4953 39.8865 20.8239C39.8865 17.1524 42.8618 14.1761 46.5333 14.1761C50.2047 14.1761 53.181 17.1524 53.181 20.8239Z" fill="#FF4D1C"/>
<path d="M33.2388 0.880615C36.9102 0.880615 39.8865 3.8569 39.8865 7.52834C39.8865 11.1998 36.9102 14.1761 33.2388 14.1761C29.5674 14.1761 26.5911 11.1998 26.5911 7.52834C26.5911 3.8569 29.5674 0.880615 33.2388 0.880615Z" fill="#FF4D1C"/>
<path d="M59.8298 40.7671C56.1584 40.7671 53.182 37.7908 53.182 34.1194C53.182 30.448 56.1584 27.4717 59.8298 27.4717C63.5013 27.4717 66.4776 30.448 66.4776 34.1194C66.4776 37.7908 63.5013 40.7671 59.8298 40.7671Z" fill="#FF4D1C"/>
<path d="M26.591 34.1194C26.591 30.448 29.5674 27.4716 33.2388 27.4716C36.9102 27.4716 39.8866 30.448 39.8866 34.1194C39.8866 37.7908 36.9102 40.7672 33.2388 40.7672C29.5674 40.7672 26.591 37.7908 26.591 34.1194Z" fill="#FF4D1C"/>
</svg>
